<svg width="50" height="50" viewBox="0 0 50 50" fill="none" xmlns="http://www.w3.org/2000/svg">
<path d="M7.45619 36.9361C6.51893 36.9361 5.73637 36.6221 5.10849 35.9943C4.48062 35.3664 4.16669 34.5838 4.16669 33.6466V15.7895C4.16669 14.8522 4.48062 14.0697 5.10849 13.4418C5.73637 12.8139 6.51893 12.5 7.45619 12.5H25.3133C26.2505 12.5 27.0331 12.8139 27.661 13.4418C28.2889 14.0697 28.6028 14.8522 28.6028 15.7895V33.6466C28.6028 34.5838 28.2889 35.3664 27.661 35.9943C27.0331 36.6221 26.2505 36.9361 25.3133 36.9361H7.45619ZM35.1817 36.9361V12.5H37.2181V36.9361H35.1817ZM43.797 36.9361V12.5H45.8334V36.9361H43.797Z" fill="#F07167"/>
</svg>
