<svg width="24" height="24" viewBox="0 0 24 24" fill="none" xmlns="http://www.w3.org/2000/svg">
<path d="M12 17.1099L6.94504 12.0549L7.95604 11.0275L11.2857 14.3571V2H12.7143V14.3571L16.044 11.0275L17.055 12.0549L12 17.1099ZM4.30768 22C3.65018 22 3.10119 21.7798 2.66071 21.3393C2.22024 20.8988 2 20.3498 2 19.6923V16.2308H3.42857V19.6923C3.42857 19.9121 3.52014 20.1135 3.70329 20.2967C3.88645 20.4799 4.08792 20.5714 4.30768 20.5714H19.6923C19.9121 20.5714 20.1135 20.4799 20.2967 20.2967C20.4799 20.1135 20.5714 19.9121 20.5714 19.6923V16.2308H22V19.6923C22 20.3498 21.7798 20.8988 21.3393 21.3393C20.8988 21.7798 20.3498 22 19.6923 22H4.30768Z" fill="#F07167"/>
</svg>
