<svg width="15" height="15" viewBox="0 0 15 15" fill="none" xmlns="http://www.w3.org/2000/svg">
<path d="M2.37179 12.2222C2.05217 12.2222 1.7853 12.1152 1.57118 11.901C1.35706 11.6869 1.25 11.4201 1.25 11.1004V3.62179C1.25 3.30217 1.35706 3.0353 1.57118 2.82118C1.7853 2.60706 2.05217 2.5 2.37179 2.5H12.6282C12.9478 2.5 13.2147 2.60706 13.4288 2.82118C13.6429 3.0353 13.75 3.30217 13.75 3.62179V11.1004C13.75 11.4201 13.6429 11.6869 13.4288 11.901C13.2147 12.1152 12.9478 12.2222 12.6282 12.2222H2.37179ZM7.5 7.44125L13.0556 3.80877L12.8419 3.19444L7.5 6.66667L2.15813 3.19444L1.94444 3.80877L7.5 7.44125Z" fill="#F07167"/>
</svg>
