<svg width="15" height="15" viewBox="0 0 15 15" fill="none" xmlns="http://www.w3.org/2000/svg">
<path d="M7.42498 7.30657C7.7338 7.30657 7.99738 7.19661 8.21572 6.9767C8.43405 6.75678 8.54322 6.49242 8.54322 6.1836C8.54322 5.87479 8.43326 5.61122 8.21336 5.39288C7.99344 5.17454 7.72908 5.06537 7.42027 5.06537C7.11145 5.06537 6.84787 5.17533 6.62953 5.39524C6.4112 5.61515 6.30203 5.87951 6.30203 6.18834C6.30203 6.49715 6.41198 6.76072 6.63189 6.97905C6.8518 7.1974 7.11617 7.30657 7.42498 7.30657ZM7.42262 13.75C5.79242 12.3083 4.56443 10.9638 3.73866 9.71651C2.91289 8.46919 2.5 7.33414 2.5 6.31137C2.5 4.84392 2.97781 3.63349 3.93343 2.68009C4.88905 1.7267 6.05211 1.25 7.42262 1.25C8.79314 1.25 9.9562 1.7267 10.9118 2.68009C11.8674 3.63349 12.3452 4.84392 12.3452 6.31137C12.3452 7.33414 11.9324 8.46919 11.1066 9.71651C10.2808 10.9638 9.05283 12.3083 7.42262 13.75Z" fill="#F07167"/>
</svg>
