<svg width="15" height="15" viewBox="0 0 15 15" fill="none" xmlns="http://www.w3.org/2000/svg">
<path d="M12.9147 13.75C11.5976 13.75 10.2474 13.4202 8.86418 12.7607C7.48096 12.1011 6.1934 11.1754 5.0015 9.98348C3.8196 8.79156 2.89888 7.5065 2.23934 6.1283C1.57978 4.7501 1.25 3.40244 1.25 2.08533C1.25 1.85096 1.32812 1.65314 1.48438 1.49187C1.64062 1.33062 1.83594 1.25 2.07031 1.25H4.0024C4.21475 1.25 4.40005 1.31686 4.5583 1.45057C4.71656 1.58428 4.82372 1.7558 4.8798 1.96514L5.26742 3.82812C5.30349 4.04647 5.29698 4.23728 5.24789 4.40055C5.19881 4.5638 5.11218 4.69751 4.98799 4.80168L3.27373 6.40023C3.59425 6.98217 3.94857 7.52279 4.3367 8.02209C4.72481 8.52139 5.13872 8.99439 5.57842 9.44111C6.03215 9.89484 6.52044 10.3168 7.04326 10.7069C7.5661 11.097 8.14002 11.4653 8.76502 11.8119L10.4357 10.1112C10.5629 9.97396 10.7059 9.88357 10.8646 9.84C11.0234 9.79642 11.1989 9.78765 11.3912 9.81369L13.0349 10.1502C13.2472 10.2023 13.4195 10.3092 13.5517 10.471C13.6839 10.6328 13.75 10.8183 13.75 11.0276V12.9297C13.75 13.1641 13.6694 13.3594 13.5081 13.5156C13.3469 13.6719 13.149 13.75 12.9147 13.75Z" fill="#F07167"/>
</svg>
