<svg width="100" height="100" viewBox="0 0 100 100" fill="none" xmlns="http://www.w3.org/2000/svg">
<rect width="100" height="100" rx="50" fill="#E6E6E6"/>
<path d="M49.7548 49.2643C46.2479 49.2643 43.2459 48.0157 40.7486 45.5184C38.2513 43.0211 37.0027 40.0191 37.0027 36.5123V24.8228C37.0027 23.4831 37.4636 22.3444 38.3855 21.4066C39.3074 20.4689 40.4268 20 41.7438 20C42.5885 20 43.3528 20.1934 44.0367 20.5803C44.7207 20.9673 45.2915 21.485 45.7493 22.1335C46.207 21.485 46.7778 20.9673 47.4618 20.5803C48.1458 20.1934 48.9101 20 49.7548 20C50.5994 20 51.3637 20.1934 52.0477 20.5803C52.7316 20.9673 53.3024 21.485 53.7601 22.1335C54.218 21.485 54.7888 20.9673 55.4727 20.5803C56.1567 20.1934 56.9074 20 57.7247 20C59.0872 20 60.2248 20.4689 61.1376 21.4066C62.0504 22.3444 62.5067 23.4831 62.5067 24.8228V36.5123C62.5067 40.0191 61.2581 43.0211 58.7609 45.5184C56.2636 48.0157 53.2615 49.2643 49.7548 49.2643ZM49.7548 45.0136C52.0926 45.0136 54.094 44.1812 55.7588 42.5164C57.4237 40.8515 58.2561 38.8501 58.2561 36.5123V25.8856H41.2534V36.5123C41.2534 38.8501 42.0858 40.8515 43.7507 42.5164C45.4155 44.1812 47.4168 45.0136 49.7548 45.0136ZM20 80V73.0026C20 71.2479 20.5109 69.6062 21.5327 68.0776C22.5545 66.549 23.9292 65.3623 25.6567 64.5176C29.6676 62.5939 33.6812 61.1511 37.6975 60.1893C41.7139 59.2274 45.733 58.7465 49.7548 58.7465C53.7765 58.7465 57.7956 59.2274 61.812 60.1893C65.8283 61.1511 69.8419 62.5939 73.8528 64.5176C75.5803 65.3623 76.955 66.549 77.9768 68.0776C78.9986 69.6062 79.5095 71.2479 79.5095 73.0026V80H20ZM24.2507 75.7492H75.2588V73.0026C75.2588 72.0599 74.955 71.1743 74.3474 70.346C73.7397 69.5177 72.8991 68.8174 71.8255 68.2451C68.3269 66.5503 64.7197 65.252 61.0037 64.3501C57.2878 63.4481 53.5382 62.9972 49.7548 62.9972C45.9713 62.9972 42.2216 63.4481 38.5058 64.3501C34.7898 65.252 31.1826 66.5503 27.684 68.2451C26.6104 68.8174 25.7698 69.5177 25.1622 70.346C24.5545 71.1743 24.2507 72.0599 24.2507 73.0026V75.7492Z" fill="#FFFFFC"/>
</svg>
